Exact Audio Copy V0.99 prebeta 5 from 4. May 2009

EAC extraction logfile from 14. February 2012, 10:19

Belphegor / Blutsabbath (LEP 010/CD 5.7327.20.561)

Used drive  : PIONEER DVD-RW  DVR-215   Adapter: 5  ID: 0

Read mode               : Secure
Utilize accurate stream : Yes
Defeat audio cache      : Yes
Make use of C2 pointers : No

Read offset correction                      : 48
Overread into Lead-In and Lead-Out          : No
Fill up missing offset samples with silence : Yes
Delete leading and trailing silent blocks   : No
Null samples used in CRC calculations       : Yes
Used interface                              : Native Win32 interface for Win NT & 2000

Used output format              : User Defined Encoder
Selected bitrate                : 1024 kBit/s
Quality                         : High
Add ID3 tag                     : No
Command line compressor         : C:\Program Files (x86)\Exact Audio Copy\Flac\flac.exe
Additional command line options : -8 -V %s


TOC of the extracted CD

     Track |   Start  |  Length  | Start sector | End sector 
    ---------------------------------------------------------
        1  |  0:00.00 |  3:40.16 |         0    |    16515   
        2  |  3:40.16 |  4:06.61 |     16516    |    35026   
        3  |  7:47.02 |  3:07.13 |     35027    |    49064   
        4  | 10:54.15 |  3:03.38 |     49065    |    62827   
        5  | 13:57.53 |  5:57.57 |     62828    |    89659   
        6  | 19:55.35 |  3:47.43 |     89660    |   106727   
        7  | 23:43.03 |  4:14.59 |    106728    |   125836   
        8  | 27:57.62 |  3:03.08 |    125837    |   139569   
        9  | 31:00.70 |  4:56.05 |    139570    |   161774   


Range status and errors

Selected range

     Filename D:\bki71\Belphegor\Belphegor - Blutsabbath (LEP 010 CD 5.7327.20.561).wav

     Peak level 99.9 %
     Range quality 100.0 %
     Test CRC 8CCFD743
     Copy CRC 8CCFD743
     Copy OK

No errors occurred

 
AccurateRip summary
 
Track  1  not present in database
Track  2  not present in database
Track  3  not present in database
Track  4  not present in database
Track  5  not present in database
Track  6  not present in database
Track  7  not present in database
Track  8  not present in database
Track  9  not present in database
 
None of the tracks are present in the AccurateRip database

End of status report
